M48
; DRILL file KiCad 10.0.4 date 2026-07-07T16:56:27
; FORMAT={-:-/ absolute / metric / decimal}
; #@! TF.CreationDate,2026-07-07T16:56:27-04:00
; #@! TF.GenerationSoftware,Kicad,Pcbnew,10.0.4
; #@! TF.FileFunction,Plated,1,2,PTH
FMAT,2
METRIC
; #@! TA.AperFunction,Plated,PTH,ViaDrill
T1C0.300
; #@! TA.AperFunction,Plated,PTH,ComponentDrill
T2C0.800
; #@! TA.AperFunction,Plated,PTH,ComponentDrill
T3C0.900
; #@! TA.AperFunction,Plated,PTH,ComponentDrill
T4C1.000
; #@! TA.AperFunction,Plated,PTH,ComponentDrill
T5C1.200
; #@! TA.AperFunction,Plated,PTH,ComponentDrill
T6C1.300
; #@! TA.AperFunction,Plated,PTH,ComponentDrill
T7C1.800
; #@! TA.AperFunction,Plated,PTH,ComponentDrill
T8C2.500
%
G90
G05
T1
X59.443Y-192.918
X60.068Y-204.0
X61.075Y-119.0
X62.5Y-121.5
X67.5Y-189.198
X69.375Y-188.573
X70.0Y-186.5
X70.636Y-181.5
X71.261Y-179.31
X71.875Y-167.125
X72.022Y-183.499
X72.5Y-181.5
X79.375Y-174.45
X79.709Y-201.209
X82.41Y-183.91
X82.5Y-151.5
X82.5Y-176.5
X82.5Y-179.0
X82.5Y-191.5
X83.125Y-148.825
X83.575Y-144.0
X84.986Y-203.986
X84.996Y-202.87
X86.171Y-204.0
X87.405Y-203.65
X87.614Y-204.422
X87.95Y-177.125
X88.705Y-199.115
X90.0Y-189.0
X90.206Y-201.294
X91.592Y-185.536
X92.5Y-176.5
X92.5Y-179.0
X93.125Y-186.818
X93.75Y-181.5
X94.07Y-187.43
X95.0Y-179.0
X138.94Y-195.06
X140.0Y-118.375
X143.125Y-146.5
X144.411Y-120.027
X145.0Y-121.5
X145.0Y-124.0
T2
X62.26Y-202.1
X62.38Y-194.0
X62.38Y-198.05
X62.38Y-206.15
X62.38Y-210.2
X62.38Y-214.25
X62.38Y-218.3
X62.38Y-222.35
X67.5Y-169.0
X67.879Y-145.11
X67.879Y-147.65
X67.879Y-150.19
X67.879Y-152.73
X67.879Y-155.27
X67.879Y-157.81
X67.879Y-160.35
X67.879Y-162.89
X72.5Y-169.0
X75.499Y-145.11
X75.499Y-147.65
X75.499Y-150.19
X75.499Y-152.73
X75.499Y-155.27
X75.499Y-157.81
X75.499Y-160.35
X75.499Y-162.89
X77.5Y-202.1
X77.62Y-194.0
X77.62Y-198.05
X77.62Y-206.15
X77.62Y-210.2
X77.62Y-214.25
X77.62Y-218.3
X77.62Y-222.35
X127.38Y-194.0
X127.38Y-198.05
X127.38Y-202.1
X127.38Y-206.15
X127.38Y-210.2
X127.38Y-214.25
X127.38Y-222.35
X127.46Y-218.3
X142.62Y-194.0
X142.62Y-198.05
X142.62Y-202.1
X142.62Y-206.15
X142.62Y-210.2
X142.62Y-214.25
X142.62Y-222.35
X142.7Y-218.3
T3
X71.729Y-111.358
X74.269Y-111.358
X86.729Y-111.358
X89.269Y-111.358
X91.729Y-143.857
X94.269Y-143.857
X101.729Y-111.358
X101.729Y-133.857
X101.729Y-153.857
X104.269Y-111.358
X104.269Y-133.857
X104.269Y-153.857
X111.729Y-143.857
X114.269Y-143.857
X116.729Y-111.358
X119.269Y-111.358
X131.729Y-111.358
X134.269Y-111.358
T4
X69.899Y-138.357
X72.399Y-138.357
X74.899Y-138.357
X97.8Y-73.24
X97.8Y-121.5
X100.34Y-73.24
X100.34Y-121.5
X102.88Y-73.24
X102.88Y-121.5
X105.42Y-73.24
X105.42Y-121.5
X107.96Y-73.24
X107.96Y-121.5
X110.5Y-73.24
X110.5Y-121.5
X113.04Y-121.5
X115.58Y-73.24
X115.58Y-121.5
X118.12Y-73.24
X119.64Y-121.5
X120.66Y-73.24
X122.18Y-121.5
X123.2Y-73.24
X124.72Y-121.5
X125.74Y-73.24
X127.26Y-121.5
X128.28Y-73.24
X129.8Y-121.5
X130.399Y-156.357
X130.82Y-73.24
X132.34Y-121.5
X133.36Y-73.24
X134.88Y-121.5
X137.42Y-121.5
X137.999Y-156.357
X139.96Y-121.5
X142.5Y-121.5
T5
X70.499Y-69.0
X73.039Y-69.0
X75.579Y-69.0
X78.119Y-69.0
X80.659Y-69.0
X83.199Y-69.0
X85.739Y-69.0
X88.279Y-69.0
X90.819Y-69.0
X93.359Y-69.0
X95.899Y-69.0
X98.439Y-69.0
X100.979Y-69.0
X103.519Y-69.0
X106.059Y-69.0
X108.599Y-69.0
T6
X76.749Y-179.0
X76.749Y-184.0
X89.249Y-179.0
X89.249Y-184.0
X96.749Y-166.5
X96.749Y-171.5
X96.749Y-189.0
X96.749Y-194.0
X109.249Y-166.5
X109.249Y-171.5
X109.249Y-189.0
X109.249Y-194.0
X116.749Y-179.0
X116.749Y-184.0
X127.999Y-128.857
X127.999Y-133.857
X129.249Y-179.0
X129.249Y-184.0
X140.499Y-128.857
X140.499Y-133.857
T8
X65.0Y-69.0
X65.0Y-100.001
X139.999Y-100.001
X139.999Y-69.0
T7
G00X67.999Y-131.507
M15
G01X67.999Y-131.207
M16
G05
G00X76.799Y-131.507
M15
G01X76.799Y-131.207
M16
G05
M30
